<svg xmlns="http://www.w3.org/2000/svg" width="26" height="25.5" viewBox="0 0 26 25.5">
  <title>monster-avatar</title>
  <rect width="26" height="25.5" style="fill: #fff"/>
  <path d="M26,25.5V13.6a9.9,9.9,0,0,0-1.78-.44,4.67,4.67,0,0,1-2.53-.73l.39.08a.57.57,0,0,0-.19-.25c-.53-.48-1.11-.75-1.22-.87a5.15,5.15,0,0,1-.35-.62l.25.14a4.19,4.19,0,0,0-.43-.64c-.31-.39-1.79-1.65-1.79-1.65l.14,0a1.07,1.07,0,0,0-.12-.14,3,3,0,0,0-.49-.31c-.19-.1-1.09-.72-1.09-.72l.25,0-.35-.34a4.43,4.43,0,0,0-1.53-.83,12,12,0,0,0-4.65.06A4.37,4.37,0,0,0,9,7.21l-.35.34.25,0s-.91.62-1.09.72a3,3,0,0,0-.49.31,1.07,1.07,0,0,0-.12.14l.14,0S5.83,9.89,5.52,10.28a4.19,4.19,0,0,0-.43.64l.25-.14a5.15,5.15,0,0,1-.35.62c-.1.12-.69.39-1.22.87a.57.57,0,0,0-.19.25L4,12.43a4.67,4.67,0,0,1-2.53.73A4.79,4.79,0,0,0,0,13.52v12ZM14.83,9.68c.45.07.77.4.71.75s-.42.34-.87.27-.8-.18-.75-.52A.74.74,0,0,1,14.83,9.68Zm-3.51,0a.74.74,0,0,1,.9.5c.05.34-.3.45-.75.52s-.82.07-.87-.27S10.87,9.75,11.32,9.68Z" style="fill: #642891"/>
</svg>
