<svg id="Layer_1" data-name="Layer 1" xmlns="http://www.w3.org/2000/svg" viewBox="0 0 281.63 52.95"><defs><style>.cls-1,.cls-3{fill:#f6b221;}.cls-1{fill-rule:evenodd;}.cls-2{fill:#50748a;}.cls-4{fill:#76787b;}</style></defs><title>RiseSmart - Primary Logo - Full Color</title><path class="cls-1" d="M58,34c-4.76,3-12,6.38-12.75,13.21-1,9.05,10.07,8.21,17.91,9.4,15,2.28,28.42,8.1,35.81,16.56a66.3,66.3,0,0,0-23.05-11c-9-2.42-20-2.08-29.54-4.48,0,2.61.95,4.28,1.12,6.72C41,60.21,33.72,56.73,22.63,57.07a34.23,34.23,0,0,1,16.12.46c3,.9,5.48,3.23,7.16,0C42.59,55,40.07,52,40.53,46.78c.58-6.6,6.4-10,10.07-13.21-7.83-3.3-19.32-1-24.4,3.13,5-7.86,23.1-9.81,31.78-2.68" transform="translate(-22.63 -22.63)"/><path class="cls-1" d="M66.59,27.53a4.29,4.29,0,1,1-4.29-4.29,4.29,4.29,0,0,1,4.29,4.29" transform="translate(-22.63 -22.63)"/><path class="cls-2" d="M116.83,22.63a3,3,0,0,1,3.09,2.8,2.91,2.91,0,0,1-3.09,2.76,2.88,2.88,0,0,1-3.06-2.76,2.94,2.94,0,0,1,3.06-2.8m-2.4,9.14h4.83V54.44h-4.83Z" transform="translate(-22.63 -22.63)"/><path class="cls-2" d="M140.69,37.27a19.44,19.44,0,0,0-8.4-2.32c-2.44,0-4.59.81-4.59,2.65,0,2.28,3.52,2.52,5.54,2.61,4,.2,10.79.58,10.79,7.15,0,5.4-4.64,7.87-10.6,7.87a19.69,19.69,0,0,1-11.25-3.48L124,48.08a17.55,17.55,0,0,0,9.37,3.13c3.34,0,5.82-1.21,5.82-3.38,0-2.59-3.47-2.88-6-3-4.74-.26-10.37-.68-10.37-6.66,0-5.52,4.92-7.2,9.34-7.2a23.3,23.3,0,0,1,10.32,2.61Z" transform="translate(-22.63 -22.63)"/><path class="cls-2" d="M168.35,50.91a16.52,16.52,0,0,1-11.17,4.22c-7.27,0-11.4-5.4-11.4-11.88,0-6.8,4.84-12.22,11.83-12.22C163,31,169,34.36,169,42.81c0,.4,0,.87,0,1.36H150.66c.33,3.71,2.62,6.71,7,6.71a10.48,10.48,0,0,0,7.41-3.1ZM150.93,40.36h12.71c0-3.63-3.28-5.32-6.28-5.32-3.48,0-5.63,2.36-6.43,5.32" transform="translate(-22.63 -22.63)"/><path class="cls-3" d="M170.51,50.93a24,24,0,0,0,14.29,4.43c7.31,0,13.51-2.85,13.51-10.27,0-8.55-8.63-9.1-14.12-9.47-4.64-.34-8.35-.49-8.35-3.8s2.91-4.4,6.57-4.4c5.64,0,8.91,2,10.6,3.57l3.19-3.68a22.05,22.05,0,0,0-13.6-4.45c-5.63,0-12,2.15-12,9.42,0,7.43,6.85,8,13.61,8.46,5.35.42,8.87,1.2,8.87,5.06,0,3.47-3.62,5-8.17,5a18.91,18.91,0,0,1-11.18-3.55Z" transform="translate(-22.63 -22.63)"/><path class="cls-3" d="M220.55,54.44h-4.88V39.1a3.94,3.94,0,0,0-4.17-3.81c-2.54,0-4.41,1.84-5.73,3.63V54.44h-4.84V38a32,32,0,0,0-.56-6.21h4.4a17.76,17.76,0,0,1,.47,3.32c1.59-2.05,3.53-4.06,7-4.06a8.07,8.07,0,0,1,7.45,4.55c1.6-2.46,3.85-4.55,7.33-4.55a8,8,0,0,1,8.25,8.06V54.44h-4.88V39.1a3.94,3.94,0,0,0-4.18-3.81c-2.53,0-4.4,1.84-5.72,3.63Z" transform="translate(-22.63 -22.63)"/><path class="cls-3" d="M269.64,39.62V54.44h-4.81V38a31.77,31.77,0,0,0-.62-6.21h4.47a25.28,25.28,0,0,1,.47,3.81c1.5-2.32,3.28-4.55,6.56-4.55a4.77,4.77,0,0,1,3.19.92l-1.45,4.5a7,7,0,0,0-2.85-.7c-2.17,0-3.68,2-4.94,3.85" transform="translate(-22.63 -22.63)"/><path class="cls-3" d="M293.6,50.65a4.65,4.65,0,0,1-3.53-1.91A4.25,4.25,0,0,1,289.4,46V35.52h6V31.71h-6V25h-4.83v6.71h-4.21v3.81h4.21v10.9a9,9,0,0,0,.51,3.28,9,9,0,0,0,3.33,4,10.7,10.7,0,0,0,5.5,1.42,15.23,15.23,0,0,0,3.55-.43V50.48s-1.25.17-2.41.2A9.78,9.78,0,0,1,293.6,50.65Z" transform="translate(-22.63 -22.63)"/><path class="cls-2" d="M106.08,50.28a5.79,5.79,0,0,1-3.7-3.08l-3-5.13.22,0c4-1.48,6.71-4.61,6.71-8.72a8.92,8.92,0,0,0-2.44-6.1C101.88,25.14,99.12,24,95,24H78.28V54.44h5.23V42.74h9.9L97.16,49c2.73,4.6,5.69,6.17,10.15,6.17a19.17,19.17,0,0,0,4.13-.43V50.35A20.31,20.31,0,0,1,106.08,50.28ZM83.51,28.66H95a6,6,0,0,1,4.77,1.64,4.33,4.33,0,0,1,1.27,3A5,5,0,0,1,96,38.09H83.51Z" transform="translate(-22.63 -22.63)"/><path class="cls-3" d="M260.7,50.34V37.68c0-5-5.16-6.65-10.28-6.65a21.79,21.79,0,0,0-10.75,2.9l1.7,4a17,17,0,0,1,8.82-2.79c3.24,0,5.68,1.2,5.68,4v1.57A19.6,19.6,0,0,0,248,39.45a12.23,12.23,0,0,0-5.44,1.47,9.17,9.17,0,0,0-2.53,1.91,6.15,6.15,0,0,0-1.75,4.29c0,4.59,3.52,7.78,8.92,7.78a12.24,12.24,0,0,0,8.63-3.28,11.88,11.88,0,0,0,.56,2.84h4.89A11.41,11.41,0,0,1,260.7,50.34Zm-12.44.53c-3.24,0-5.06-1.65-5.06-3.77,0-.21,0-.44,0-.68a2.85,2.85,0,0,1,1.22-2.1s1.77-1.64,6.08-1.23a23.12,23.12,0,0,1,5.34,1.08v3.46A11.28,11.28,0,0,1,248.26,50.88Z" transform="translate(-22.63 -22.63)"/><path class="cls-3" d="M299,52.72a2.5,2.5,0,0,1,2.59-2.39,2.53,2.53,0,0,1,2.64,2.39,2.5,2.5,0,0,1-2.64,2.4A2.47,2.47,0,0,1,299,52.72Zm4.78,0a2.1,2.1,0,0,0-2.19-2,2.08,2.08,0,0,0-2.14,2,2,2,0,0,0,2.14,2A2.07,2.07,0,0,0,303.8,52.72Zm-3.31,1.13v-2.4H302c.53,0,.93.31.93.75a.79.79,0,0,1-.54.69l.6,1h-.63l-.54-.91H301v.91Zm.55-2v.58h1c.19,0,.39-.14.39-.29s-.17-.3-.38-.3Z" transform="translate(-22.63 -22.63)"/><path class="cls-4" d="M171.61,67.44a5.45,5.45,0,0,1,2.77-.78c1.32,0,2.71.45,2.71,1.79v3.34a2.52,2.52,0,0,0,.19,1.09h-1a2.28,2.28,0,0,1-.18-.85,3.61,3.61,0,0,1-2.51,1,2.13,2.13,0,0,1-2.4-2.07c0-1.09,1-2,2.77-2a3.34,3.34,0,0,1,2.13.63v-.86c0-.85-.81-1.19-1.72-1.19a4.42,4.42,0,0,0-2.36.75Zm4.46,3.73v-.76a2.83,2.83,0,0,0-2-.64c-1.36,0-1.9.51-1.9,1.17s.55,1.21,1.57,1.21A3.35,3.35,0,0,0,176.06,71.17Z" transform="translate(-22.63 -22.63)"/><path class="cls-4" d="M182,72.88V64.49h4.63a3,3,0,0,1,2.35.85,2.35,2.35,0,0,1,.64,1.64,2.43,2.43,0,0,1-2,2.34l2.07,3.56h-1.27l-1.93-3.42h-3.42v3.42Zm1.12-7.4v3h3.79a1.54,1.54,0,0,0,1.61-1.5,1.43,1.43,0,0,0-.4-1,2,2,0,0,0-1.49-.51Z" transform="translate(-22.63 -22.63)"/><path class="cls-4" d="M191.37,67.44a5.45,5.45,0,0,1,2.77-.78c1.32,0,2.71.45,2.71,1.79v3.34a2.52,2.52,0,0,0,.19,1.09h-1a2.28,2.28,0,0,1-.18-.85,3.61,3.61,0,0,1-2.51,1,2.13,2.13,0,0,1-2.4-2.07c0-1.09,1-2,2.77-2a3.34,3.34,0,0,1,2.13.63v-.86c0-.85-.81-1.19-1.72-1.19a4.42,4.42,0,0,0-2.36.75Zm4.46,3.73v-.76a2.83,2.83,0,0,0-2-.64c-1.36,0-1.9.51-1.9,1.17s.55,1.21,1.57,1.21A3.35,3.35,0,0,0,195.83,71.17Z" transform="translate(-22.63 -22.63)"/><path class="cls-4" d="M198.88,72.88v-4.5a7.13,7.13,0,0,0-.17-1.53h.94a3.68,3.68,0,0,1,.14.93A2.88,2.88,0,0,1,202,66.66a2.17,2.17,0,0,1,2.33,2.13v4.09h-1V68.79a1.33,1.33,0,0,0-1.45-1.23,2.64,2.64,0,0,0-2,1v4.29Z" transform="translate(-22.63 -22.63)"/><path class="cls-4" d="M211.14,72.88a4.17,4.17,0,0,1-.09-.89,2.78,2.78,0,0,1-2.15,1.07,3.2,3.2,0,0,1,0-6.4,3,3,0,0,1,2.06.9V63.89h1v7.45a8,8,0,0,0,.1,1.54Zm-4.14-3a2.1,2.1,0,0,0,2,2.31,2.64,2.64,0,0,0,2-.94V68.5a2.87,2.87,0,0,0-2-.94A2.09,2.09,0,0,0,207,69.85Z" transform="translate(-22.63 -22.63)"/><path class="cls-4" d="M218.48,68.16a4.73,4.73,0,0,0-2.27-.67c-.71,0-1.45.26-1.45.89s1,.8,1.71.82c1.05.05,2.84.14,2.84,1.82,0,1.4-1.26,2-2.83,2a5,5,0,0,1-3-.94l.4-.77a4.47,4.47,0,0,0,2.54.86c1,0,1.81-.37,1.81-1.09s-1.08-.91-1.81-1c-1.25-.08-2.72-.18-2.72-1.68s1.31-1.86,2.45-1.86a5.5,5.5,0,0,1,2.69.75Z" transform="translate(-22.63 -22.63)"/><path class="cls-4" d="M220,66.85h1.18V65h1v1.82H224v.8h-1.81v3.74a.75.75,0,0,0,.83.81,2.73,2.73,0,0,0,1-.19l.13.8a2.92,2.92,0,0,1-1.32.3,1.58,1.58,0,0,1-1.67-1.71V67.65H220Z" transform="translate(-22.63 -22.63)"/><path class="cls-4" d="M225.4,67.44a5.45,5.45,0,0,1,2.77-.78c1.32,0,2.71.45,2.71,1.79v3.34a2.52,2.52,0,0,0,.19,1.09h-1a2.28,2.28,0,0,1-.18-.85,3.61,3.61,0,0,1-2.51,1,2.13,2.13,0,0,1-2.4-2.07c0-1.09,1-2,2.77-2a3.34,3.34,0,0,1,2.13.63v-.86c0-.85-.81-1.19-1.72-1.19a4.42,4.42,0,0,0-2.36.75Zm4.46,3.73v-.76a2.83,2.83,0,0,0-2-.64c-1.36,0-1.9.51-1.9,1.17s.55,1.21,1.57,1.21A3.35,3.35,0,0,0,229.86,71.17Z" transform="translate(-22.63 -22.63)"/><path class="cls-4" d="M237.71,72.88a4.17,4.17,0,0,1-.09-.89,2.79,2.79,0,0,1-2.15,1.07,3.2,3.2,0,0,1,0-6.4,3,3,0,0,1,2.06.9V63.89h1v7.45a8,8,0,0,0,.1,1.54Zm-4.14-3a2.1,2.1,0,0,0,2,2.31,2.64,2.64,0,0,0,2-.94V68.5a2.87,2.87,0,0,0-2-.94A2.09,2.09,0,0,0,233.57,69.85Z" transform="translate(-22.63 -22.63)"/><path class="cls-4" d="M247.88,68.34a2.74,2.74,0,0,0-1.91-.78,2.13,2.13,0,0,0-2.11,2.29,2.17,2.17,0,0,0,2.18,2.3,2.76,2.76,0,0,0,2-.89l.69.64A3.72,3.72,0,0,1,246,73.06a3.2,3.2,0,1,1,0-6.4,3.85,3.85,0,0,1,2.61,1Z" transform="translate(-22.63 -22.63)"/><path class="cls-4" d="M252.88,66.66a3.2,3.2,0,1,1-3.22,3.19A3.14,3.14,0,0,1,252.88,66.66Zm0,5.54a2.35,2.35,0,1,0-2.16-2.35A2.21,2.21,0,0,0,252.88,72.2Z" transform="translate(-22.63 -22.63)"/><path class="cls-4" d="M257.74,72.88v-4.5a7,7,0,0,0-.17-1.53h.94a3.58,3.58,0,0,1,.14.91,2.56,2.56,0,0,1,2-1.1,2.15,2.15,0,0,1,2,1.22,2.55,2.55,0,0,1,2.09-1.22,2.09,2.09,0,0,1,2.16,2.13v4.09h-1V68.79a1.23,1.23,0,0,0-1.29-1.23,2.39,2.39,0,0,0-1.76,1v4.29h-1V68.63a1.23,1.23,0,0,0-1.28-1.07,2.34,2.34,0,0,0-1.76,1v4.29Z" transform="translate(-22.63 -22.63)"/><path class="cls-4" d="M268.91,75.58V68.41a6.55,6.55,0,0,0-.14-1.55h1a3.5,3.5,0,0,1,.12.89A2.91,2.91,0,0,1,272,66.66a3.2,3.2,0,0,1-.06,6.4,2.71,2.71,0,0,1-2-1v3.51Zm1-4.34a2.79,2.79,0,0,0,1.91.92,2.32,2.32,0,0,0,.06-4.6,2.83,2.83,0,0,0-2,.94Z" transform="translate(-22.63 -22.63)"/><path class="cls-4" d="M276.53,67.44a5.45,5.45,0,0,1,2.77-.78c1.32,0,2.71.45,2.71,1.79v3.34a2.52,2.52,0,0,0,.19,1.09h-1A2.28,2.28,0,0,1,281,72a3.61,3.61,0,0,1-2.51,1,2.13,2.13,0,0,1-2.4-2.07c0-1.09,1-2,2.77-2a3.34,3.34,0,0,1,2.13.63v-.86c0-.85-.81-1.19-1.72-1.19a4.42,4.42,0,0,0-2.36.75ZM281,71.17v-.76a2.83,2.83,0,0,0-2-.64c-1.36,0-1.9.51-1.9,1.17s.55,1.21,1.57,1.21A3.35,3.35,0,0,0,281,71.17Z" transform="translate(-22.63 -22.63)"/><path class="cls-4" d="M284,72.88v-4.5a7.13,7.13,0,0,0-.17-1.53h.94a3.68,3.68,0,0,1,.14.93,2.88,2.88,0,0,1,2.22-1.12,2.17,2.17,0,0,1,2.33,2.13v4.09h-1V68.79A1.33,1.33,0,0,0,287,67.56a2.64,2.64,0,0,0-2,1v4.29Z" transform="translate(-22.63 -22.63)"/><path class="cls-4" d="M297,66.85l-4.21,8.72h-1.05l1.5-3-2.58-5.74h1.16l2,4.61h.05L296,66.85Z" transform="translate(-22.63 -22.63)"/></svg>